<?xml version="1.0" encoding="UTF-8"?>
<svg id="Layer_1" data-name="Layer 1" xmlns="http://www.w3.org/2000/svg" xmlns:xlink="http://www.w3.org/1999/xlink" viewBox="0 0 161.1 219.93">
  <defs>
    <style>
      .cls-1 {
        fill: url(#linear-gradient-2);
      }

      .cls-2 {
        fill: url(#linear-gradient);
      }

      .cls-3 {
        fill: #62509f;
      }
    </style>
    <linearGradient id="linear-gradient" x1="69.83" y1="219.93" x2="69.83" y2="27.35" gradientUnits="userSpaceOnUse">
      <stop offset="0" stop-color="#14183b"/>
      <stop offset="1" stop-color="#4c4081"/>
    </linearGradient>
    <linearGradient id="linear-gradient-2" x1="19.52" y1="171.71" x2="19.52" y2="27.36" gradientUnits="userSpaceOnUse">
      <stop offset="0" stop-color="#14183b"/>
      <stop offset="1" stop-color="#4c4081"/>
    </linearGradient>
  </defs>
  <g>
    <path class="cls-2" d="M49.63,123.4c1.1-4.72,4.93-8.96,14.73-9.76,7.44-.49,15.02-1.17,22.43-2.25,7.4-1.08,14.63-2.61,21.38-4.8,2.28-.73,4.47-1.51,6.63-2.35,16.92-6.66,19.01-27.59,17.2-45.99-.48-4.82-1.23-9.46-2.05-13.62-1.93-9.79-10.62-16.75-20.59-16.49-6.42.16-13.87.31-20.65.33-10.49.05-19.38-.18-20.41-1.11,1.26,2.29,15.76,28.88,10.39,55.35,0,.08-.03.16-.04.25l-1.08,3.97c-5.33,16.15-19.71,22.58-23.5,24.02-.22.08-.43.15-.62.23-.44.19-.85.4-1.24.63-.08.04-.15.1-.22.14-.16.1-.33.21-.48.3-6.09,3.9-6.08,10.2-6.03,11.16v.25l-.04.86v.19c-.71,17.53-2.02,32.14-3.03,39.9-5.78,41.77-35.27,54.31-35.27,54.31h40.58c.41-.15.77-.55,1.08-1.15.01-.01.01-.03.01-.05.03-.05.05-.11.07-.16,1-2.91,2.09-11.79.47-38.43-.01-1.33-.01-2.7-.03-4.12,1.44,7.51,7.03,30.55,22.66,40.32.18.11.36.22.54.32,3.72,2.09,8,3.55,12.92,4.06.08,0,.15.01.23.01,4.82.38,9.77.23,14.55-.21,14.71-1.37,27.83-5.6,30.69-6.56-.01-.96-.29-23.69.03-42.07.19-11.93.65-22.01,1.59-23.18-2.61,1.58-36.3,21.48-65.32,7.08,0,0-.04-.01-.12-.05-.05-.03-.14-.05-.23-.11-.19-.08-.47-.22-.8-.41-.18-.1-.36-.19-.55-.32-.04-.01-.1-.04-.15-.08-3.1-1.87-9.44-6.79-14.11-17.62-1.04-2.57-2.72-7.77-1.67-12.53.01-.08.03-.16.05-.25ZM63.13,107.45c.08-.04.15-.07.22-.1-.11.05-.21.11-.32.18.01-.03.05-.04.1-.08Z"/>
    <path class="cls-1" d="M31.06,160.87c11.98-14.81,6.93-74.84,6.93-74.84,0,0-1.89-28.55-9.2-48.01C23.71,24.54,8.72,26.7,0,29.31v141.96c4.89.73,21,2.03,31.06-10.4Z"/>
  </g>
  <path class="cls-3" d="M153.72,17.33c-1.49-.87-3.21-2.11-4.78-3.83l-.05-.05c-1.51-1.74-2.6-3.63-3.36-5.26-.03-.05-.05-.1-.07-.14-.92-2.24-1.5-4.9-1.5-8.04,0,3.14-.58,5.8-1.5,8.04-.02.04-.04.09-.07.14-.76,1.63-1.85,3.52-3.36,5.26-.02.02-.04.04-.05.05-1.59,1.74-3.32,2.99-4.82,3.84-2.04,1.06-4.46,1.74-7.33,1.74,2.88,0,5.3.67,7.33,1.74,1.5.86,3.23,2.11,4.82,3.84l.05.05c1.51,1.75,2.6,3.63,3.36,5.26.03.05.05.1.07.14.92,2.24,1.5,4.9,1.5,8.04,0-3.14.58-5.8,1.5-8.04.02-.04.04-.09.07-.14.76-1.63,1.85-3.52,3.36-5.26.02-.02.04-.04.05-.05,1.58-1.72,3.3-2.96,4.78-3.83,2.04-1.07,4.48-1.75,7.38-1.75-2.9,0-5.34-.68-7.38-1.75Z"/>
</svg>